# xmcd
#
# Track frame offsets:
#	182
#	12005
#	27420
#	41872
#	55722
#	70795
#	86080
#	100637
#	114592
#	128125
#	142210
#	156497
#	167760
#	183765
#	196822
#	209142
#	223287
#	236280
#	249055
#	262915
#	274072
#	286595
#
# Disc length: 4003
#
# Revision: 1
# Processed by: cddbd v1.5.1PL0 Copyright (c) Steve Scherf et al.
# Submitted via: CDex 1.50
# Normalized: r0:TDELIM( - )
#
DISCID=3a0fa116
DTITLE=Various Artist - Les chanteurs de jazz - Vol 8
DYEAR=1990
DGENRE=Jazz
TTITLE0=Perry Bradford - I ain't gonna play no second fiddle
TTITLE1=Jerry Roll Morton - Doctor jazz stomp
TTITLE2=Pinetop Smith - I'm sober now
TTITLE3=Will Johnson - You might get better, but you'll never get well
TTITLE4=Henry "Red" Allen - Patrol wagon blues
TTITLE5=Louis Armstrong - Just a gigolo
TTITLE6=Don Redman - I heard
TTITLE7=Harlan Latimore - I wanna count sheep
TTITLE8=Cab Calloway - Reefer man
TTITLE9=Wilson Myers - Shag
TTITLE10=The Mills Brothers - Diga diga doo
TTITLE11=The spirits of rhythm - Rhythm
TTITLE12=Louis Bacon - Dear old southland
TTITLE13=Taft Jordan - On the sunny side of the street
TTITLE14=Stuff Smith - Old Joe's hittin' the jug
TTITLE15=Fats Waller - Lost love
TTITLE16=Jimmy Rushing - Sent for you yesterday
TTITLE17=Slim and Slam - The flat foot floogee
TTITLE18=Hot lips Page - Old man Ben
TTITLE19=Trummy Young - Ain't she sweet
TTITLE20=Dan Grissom - I love you
TTITLE21=Joe Turner - Baby, look at you
EXTD=YEAR: 1990
EXTT0=
EXTT1=
EXTT2=
EXTT3=
EXTT4=
EXTT5=
EXTT6=
EXTT7=
EXTT8=
EXTT9=
EXTT10=
EXTT11=
EXTT12=
EXTT13=
EXTT14=
EXTT15=
EXTT16=
EXTT17=
EXTT18=
EXTT19=
EXTT20=
EXTT21=
PLAYORDER=
